<svg width="140" height="44" viewBox="0 0 140 44" fill="none" xmlns="http://www.w3.org/2000/svg">
<g clip-path="url(#clip0_6146_28766)">
<path d="M34.2045 19.3579L21.6549 7.09065C21.5631 7.00098 21.4255 6.97473 21.3069 7.02504L14.1936 9.97565C14.0761 10.0238 14 10.1364 14 10.2611V34.7387C14 34.8634 14.0761 34.976 14.1936 35.0241L21.3069 37.9758C21.4255 38.025 21.5631 37.9988 21.6549 37.9091L27.3742 32.3185C27.4984 32.1971 27.4984 32.0013 27.3742 31.8799L24.6835 29.2498C24.5593 29.1284 24.359 29.1284 24.2348 29.2498L18.8735 34.4904C18.7135 34.6468 18.4405 34.5364 18.4405 34.3155V10.6854C18.4405 10.4645 18.7135 10.354 18.8735 10.5104L30.9611 22.326C31.0607 22.4233 31.0607 22.5797 30.9611 22.6771L29.1688 24.429C29.0446 24.5504 29.0446 24.7462 29.1688 24.8676L31.8595 27.4978C31.9837 27.6192 32.1839 27.6192 32.3081 27.4978L34.2045 25.6441C34.2638 25.5861 34.2974 25.5074 34.2974 25.4253V19.5799C34.2974 19.4979 34.2638 19.4191 34.2045 19.3612V19.3579Z" fill="#0564E6"/>
<path d="M22.338 25.6421L34.8876 37.9094C34.9794 37.999 35.117 38.0253 35.2356 37.975L42.3489 35.0233C42.4664 34.9751 42.5425 34.8625 42.5425 34.7378V10.2613C42.5425 10.1367 42.4664 10.024 42.3489 9.97589L35.2356 7.02528C35.117 6.97607 34.9794 7.00231 34.8876 7.0909L29.1683 12.6826C29.0441 12.804 29.0441 12.9998 29.1683 13.1212L31.859 15.7513C31.9832 15.8727 32.1835 15.8727 32.3076 15.7513L37.669 10.5107C37.829 10.3543 38.1019 10.4647 38.1019 10.6857V34.3157C38.1019 34.5366 37.829 34.6471 37.669 34.4907L25.5814 22.6751C25.4818 22.5778 25.4818 22.4214 25.5814 22.3241L27.3737 20.5721C27.4979 20.4507 27.4979 20.2549 27.3737 20.1335L24.683 17.5033C24.5588 17.3819 24.3585 17.3819 24.2344 17.5033L22.338 19.357C22.2787 19.415 22.2451 19.4937 22.2451 19.5758V25.4212C22.2451 25.5032 22.2787 25.582 22.338 25.6399V25.6421Z" fill="#1EB4F0"/>
<path d="M56.5117 21.213L55.7129 21.2951V22.7813L59.396 22.4029V23.7732H60.9086V10.4397H55.7129V11.9172H56.5117V21.2119V21.213ZM58.0243 15.1904H59.396V17.1196H58.0243V15.1904ZM59.396 13.7118H58.0243V11.9183H59.396V13.7118ZM58.0243 21.0577V18.5993H59.396V20.9167L58.0243 21.0577Z" fill="#1A1A1A"/>
<path d="M62.7686 23.7721C62.9789 23.1827 63.3213 22.205 63.7039 21.0238C64.0888 22.2039 64.4311 23.1816 64.6415 23.7721H66.2458C66.0735 23.3008 65.2624 21.0534 64.4904 18.479C65.2244 15.968 65.937 13.0316 65.937 11.3605C65.937 10.7547 65.4503 10.4397 65.0129 10.4397H61.4596V11.9183H64.3908C64.2991 12.9682 64.0373 14.2707 63.7005 15.6268C63.4455 14.6053 63.234 13.6145 63.1053 12.7396H61.5815C61.812 14.4424 62.3434 16.5378 62.9129 18.479C62.1432 21.0534 61.3343 23.2997 61.1631 23.7721H62.7675H62.7686Z" fill="#1A1A1A"/>
<path d="M54.1949 23.7V20.4552H55.7119V18.9766H54.1949V16.6067H55.7119V15.1281H53.4934V13.0436H55.4144V11.5651H53.4934V9.48169H51.9807V11.5651H49.7912V13.0436H51.9807V15.1281H49.7879V16.6067H52.6811V21.5225L51.531 19.8635L51.7637 17.6948H50.2421L49.3594 25.908H50.8798L51.2848 22.1437L52.9205 24.5016C53.5314 25.382 54.545 25.908 55.6336 25.908H66.3786V24.4294H55.6336C55.0586 24.4294 54.5238 24.156 54.1937 23.6989L54.1949 23.7Z" fill="#1A1A1A"/>
<path d="M93.855 11.6884C94.8675 11.5922 95.7603 11.5036 96.1463 11.4642V9.81177C94.6829 9.96159 90.8924 10.3323 89.7725 10.3673V12.0111C90.2603 11.9979 91.1766 11.9279 92.1745 11.8415V13.6438H89.7725V15.2865H92.1745V25.9111H93.855V15.2854H96.2559V13.6427H93.855V11.6873V11.6884Z" fill="#1A1A1A"/>
<path d="M101.086 19.2334L99.8722 15.5818H98.1045L99.3184 19.2334H101.086Z" fill="#1A1A1A"/>
<path d="M101.086 14.6961L99.8722 11.0444H98.1045L99.3184 14.6961H101.086Z" fill="#1A1A1A"/>
<path d="M89.1865 25.9101H90.707L91.743 16.272H90.2225L89.1865 25.9101Z" fill="#1A1A1A"/>
<path d="M96.3548 25.9101H94.8344L94.5088 16.272H96.0304L96.3548 25.9101Z" fill="#1A1A1A"/>
<path d="M106.002 20.1051L103.783 20.3336V9.48047H102.103V20.5064L97.124 21.0183V22.6696L102.103 22.1578V25.9101H103.783V21.985L106.002 21.7575V20.1051Z" fill="#1A1A1A"/>
<path d="M114.058 19.0158V17.3371L112.309 17.7002V13.6942H113.954V12.0516H112.309V9.48267H110.629V12.0516H108.518V13.6942H110.629V18.0502L108.518 18.4887V20.1685L110.629 19.73V24.2631H108.891V25.9057H111.31C111.861 25.9057 112.309 25.4682 112.309 24.9302V19.3811L114.058 19.018V19.0158Z" fill="#1A1A1A"/>
<path d="M124.999 24.169C124.167 23.877 122.619 23.0229 121.05 21.9052C122.846 20.2888 124.248 18.4887 124.413 17.1315C124.477 16.6153 124.08 16.0346 123.442 16.0346H120.437V13.6942H124.567V12.0516H120.437V9.48267H118.756V12.0516H114.625V13.6942H118.756V16.0346H115.15V17.6772H122.484C122.069 18.4778 121.157 19.6053 119.702 20.8772C118.784 20.127 117.934 19.3133 117.303 18.4996H115.291C116.039 19.7868 117.265 21.0237 118.349 21.9697C116.393 23.4286 114.866 24.0148 113.852 24.2652V25.9079C115.372 25.9079 117.826 24.4807 119.672 23.0513C120.642 23.7972 123.26 25.6399 124.996 25.8827V24.169H124.999Z" fill="#1A1A1A"/>
<path d="M69.5625 15.9032H70.8223V18.6067H69.5625V20.2493H70.8223V25.0875C70.8223 25.5414 71.1982 25.9089 71.6625 25.9089H74.3331V24.2662H72.5027V20.2482H74.3331V18.6056H72.5027V15.9022H74.3331V14.2595H69.5625V15.9022V15.9032Z" fill="#1A1A1A"/>
<path d="M81.4217 23.643H83.1021V21.5082H85.7145V19.8645H83.1021V18.0841H85.6161V16.4414H83.1021V13.6144H81.4217V16.4414H80.1653L80.9238 12.956H85.6832V11.3134H81.2807L81.679 9.48595L81.66 9.48267H79.9616L79.5633 11.3145H77.8158V12.9571H79.2064L78.3069 17.0932C78.1962 17.604 78.5945 18.0851 79.1293 18.0851H81.4239V19.8656H77.79V21.5093H81.4239V23.6441L81.4217 23.643Z" fill="#1A1A1A"/>
<path d="M76.9443 13.3311H75.2627V24.7551C75.2627 25.3697 75.7561 25.9078 76.4207 25.9078H85.7157V24.2652H76.9443V13.3311Z" fill="#1A1A1A"/>
<path d="M71.8058 9.89941H70.0885L69.6387 11.9642C69.5279 12.4749 69.9262 12.9561 70.461 12.9561H74.4484V11.3135H71.4982L71.8058 9.89941Z" fill="#1A1A1A"/>
<path d="M76.9387 10.4998H75.2627V12.4781H76.9387V10.4998Z" fill="#1A1A1A"/>
<path d="M51.1681 32.9772H55.367V35.5209H56.5048V29.3201H55.367V31.8649H51.1681V29.3201H50.0303V35.5209H51.1681V32.9772Z" fill="#1A1A1A"/>
<path d="M115.811 29.3198H114.673V35.5196H115.811V29.3198Z" fill="#1A1A1A"/>
<path d="M123.194 33.9383L119.787 29.7847C119.546 29.4916 119.182 29.321 118.799 29.321H118.108V35.5208H119.246V30.9035L122.654 35.0571C122.895 35.3502 123.258 35.5208 123.642 35.5208H124.332V29.321H123.194V33.9383Z" fill="#1A1A1A"/>
<path d="M60.7745 35.5207H61.9123V33.0382L65.0931 29.3198H63.6096L61.3429 31.9697L59.0773 29.3198H57.5938L60.7745 33.0382V35.5207Z" fill="#1A1A1A"/>
<path d="M97.3994 29.3198V35.5207H98.5361V32.9769H102.736V35.5207H103.874V29.3198H102.736V31.8647H98.5361V29.3198H97.3994Z" fill="#1A1A1A"/>
<path d="M66.1816 29.3199V35.5197H67.3195V33.3915H70.5718C71.4456 33.3915 72.1561 32.6971 72.1561 31.8429V30.8674C72.1561 30.0133 71.4456 29.3188 70.5718 29.3188H67.3195H66.1816V29.3199ZM70.5718 30.4322C70.818 30.4322 71.0182 30.6279 71.0182 30.8685V31.844C71.0182 32.0846 70.818 32.2804 70.5718 32.2804H67.3195V30.4322H70.5718Z" fill="#1A1A1A"/>
<path d="M73.9023 30.8521V33.9722C73.9023 34.8264 74.6128 35.5208 75.4866 35.5208H79.7157V34.4086H75.4866C75.2404 34.4086 75.0402 34.2128 75.0402 33.9722V32.9683H79.1026V31.8561H75.0402V30.8521C75.0402 30.6115 75.2404 30.4158 75.4866 30.4158H79.7157V29.321H75.2639C74.4953 29.4271 73.9023 30.0724 73.9023 30.8521Z" fill="#1A1A1A"/>
<path d="M89.4697 30.8521V33.9722C89.4697 34.8264 90.1802 35.5208 91.054 35.5208H95.7865V34.4086H91.054C90.8078 34.4086 90.6075 34.2128 90.6075 33.9722V30.8521C90.6075 30.6115 90.8078 30.4158 91.054 30.4158H95.7865V29.321H90.8313C90.0627 29.4271 89.4697 30.0724 89.4697 30.8521Z" fill="#1A1A1A"/>
<path d="M109.2 29.321H108.364L105.225 35.5208H106.494L107.218 34.0915H111.33L112.054 35.5208H113.324L110.621 30.1828C110.351 29.6513 109.807 29.321 109.201 29.321H109.2ZM107.781 32.9792L109.07 30.4322H109.2C109.371 30.4322 109.524 30.5251 109.6 30.675L110.766 32.9792H107.781Z" fill="#1A1A1A"/>
<path d="M81.584 29.3198V35.5196H82.7218V30.432H86.3725C86.6186 30.432 86.8189 30.6278 86.8189 30.8684V31.8439C86.8189 32.0845 86.6186 32.2803 86.3725 32.2803H84.042C83.7131 32.2803 83.552 32.6718 83.7892 32.8949L86.5828 35.5207H88.2241L85.9596 33.3925H86.3725C87.2474 33.3925 87.9567 32.6991 87.9567 31.8439V30.8695C87.9567 30.0143 87.2474 29.3209 86.3725 29.3209H82.7218H81.584V29.3198Z" fill="#1A1A1A"/>
</g>
<defs>
<clipPath id="clip0_6146_28766">
<rect width="111" height="31" fill="white" transform="translate(14 7)"/>
</clipPath>
</defs>
</svg>
